HIERARCHY
ROOT Hips
{
   OFFSET 0.00000 0.00000 0.00000
   CHANNELS 6 Xposition Yposition Zposition Zrotation Xrotation Yrotation
   JOINT Spine
   {
      OFFSET 0.000000 13.079551 0.000000
      CHANNELS 3 Zrotation Xrotation Yrotation
      JOINT Spine1
      {
         OFFSET -0.000000 28.223142 0.140426
         CHANNELS 3 Zrotation Xrotation Yrotation
         JOINT HEad
         {
            OFFSET 0.000000 9.607577 0.012474
            CHANNELS 3 Zrotation Xrotation Yrotation
            End Site
            {
               OFFSET -0.319000 14.051621 2.765345
            }
         }
         JOINT LeftShoulder1
         {
            OFFSET 9.889000 -0.398475 -0.242000
            CHANNELS 3 Zrotation Xrotation Yrotation
            JOINT LeftArm
            {
               OFFSET 11.310971 -0.003718 0.354332
               CHANNELS 3 Zrotation Xrotation Yrotation
               JOINT LeftForeArm
               {
                  OFFSET 36.043591 0.109054 -1.566774
                  CHANNELS 3 Zrotation Xrotation Yrotation
                  JOINT LeftHand
                  {
                     OFFSET 30.320732 0.093896 1.124376
                     CHANNELS 3 Zrotation Xrotation Yrotation
                     End Site
                     {
                        OFFSET 18.418731 -0.660000 1.653201
                     }
                  }
               }
            }
         }
         JOINT RightShoulder
         {
            OFFSET -9.889000 -0.398475 -0.242000
            CHANNELS 3 Zrotation Xrotation Yrotation
            JOINT RightArm
            {
               OFFSET -11.310971 -0.003718 0.354332
               CHANNELS 3 Zrotation Xrotation Yrotation
               JOINT RightForeArm
               {
                  OFFSET -36.186809 0.109054 -1.566774
                  CHANNELS 3 Zrotation Xrotation Yrotation
                  JOINT RightHand
                  {
                     OFFSET -30.241313 0.093896 1.124376
                     CHANNELS 3 Zrotation Xrotation Yrotation
                     End Site
                     {
                        OFFSET -18.294322 -0.660000 1.653201
                     }
                  }
               }
            }
         }
      }
   }
   JOINT LeftUpLeg
   {
      OFFSET 9.840380 -9.533777 0.111815
      CHANNELS 3 Zrotation Xrotation Yrotation
      JOINT LeftLeg
      {
         OFFSET 0.000000 -48.864969 1.509970
         CHANNELS 3 Zrotation Xrotation Yrotation
         JOINT LeftFoot
         {
            OFFSET -0.278905 -46.301641 -1.606649
            CHANNELS 3 Zrotation Xrotation Yrotation
            JOINT LeftToes
            {
               OFFSET -0.044000 -4.856599 9.349010
               CHANNELS 3 Zrotation Xrotation Yrotation
               End Site
               {
                  OFFSET 0.088000 -0.052195 10.757769
               }
            }
         }
      }
   }
   JOINT RightUpLeg
   {
      OFFSET -9.840380 -9.533777 0.111815
      CHANNELS 3 Zrotation Xrotation Yrotation
      JOINT RightLeg
      {
         OFFSET 0.000000 -48.864969 1.509970
         CHANNELS 3 Zrotation Xrotation Yrotation
         JOINT RightFoot
         {
            OFFSET 0.278905 -46.301641 -1.606649
            CHANNELS 3 Zrotation Xrotation Yrotation
            JOINT RightToes
            {
               OFFSET 0.044000 -4.856599 9.349010
               CHANNELS 3 Zrotation Xrotation Yrotation
               End Site
               {
                  OFFSET -0.088000 -0.151195 10.757769
               }
            }
         }
      }
   }
}
MOTION
Frames: 13
Frame Time: 0.016670
44.816613 81.653241 -114.290703 -12.200913 6.409007 -55.735867 25.113491 18.724308 93.819253 34.697979 26.665205 -59.141761 7.198278 48.595519 1.293913 -38.347564 82.596385 0.644563 -84.414964 -48.798143 -155.586887 10.123052 41.433403 -52.024383 -40.567451 -48.789619 -54.532483 -5.316315 34.425434 8.613462 100.103089 -53.953239 100.375046 40.124633 48.130530 83.350841 15.651107 -0.557829 -15.596867 45.191609 -11.907090 62.413107 6.917642 36.359061 130.176261 -67.631775 22.884959 -11.321593 -40.118024 55.351928 -54.836570 7.137934 -29.427894 96.647607 27.421755 12.703494 124.050633 -7.629718 20.872203 -43.040451 -17.217107 6.988256 -83.941727
45.243224 78.632783 -114.915302 -12.234543 7.760031 -54.755618 20.995749 20.440372 96.307436 32.761337 25.473214 -59.404969 6.714356 44.589292 1.960819 -40.272537 75.733670 -1.512404 -82.853289 -46.908476 -150.372543 10.268726 40.597688 -56.726944 -33.250833 -49.717890 -63.267701 -0.562261 30.280257 8.588178 89.995980 -51.354522 88.890630 29.039096 43.173120 97.104328 12.993062 -1.380514 -8.447237 49.363099 -16.949859 61.047145 9.354780 38.710493 131.949160 -65.548410 20.157222 -10.397979 -42.018412 37.593330 -49.829095 11.136074 -32.314042 93.318429 26.973303 18.689262 134.661401 -7.960562 15.882063 -41.029978 -22.705149 -0.204276 -81.650608
45.846094 74.751557 -115.891674 -12.112127 9.606583 -49.140469 14.201387 23.974442 98.861749 29.370548 21.988599 -59.715757 5.182205 38.199616 3.095174 -41.922058 68.561514 -3.902785 -80.972091 -45.146024 -146.149615 10.011783 42.762284 -59.303719 -38.247051 -43.412197 -68.180048 3.793998 26.890626 7.893923 83.021380 -48.422203 82.281137 21.975855 40.238902 105.184148 11.867580 1.962506 -5.349422 53.804989 -24.546687 61.282370 9.706847 39.487099 132.796390 -63.237566 18.152052 -6.354785 -51.154685 42.193640 -54.074010 14.258330 -37.051246 86.371239 26.260185 24.194000 149.472037 -8.224410 9.316685 -37.133826 -28.974243 -5.690769 -77.558027
46.416277 70.623330 -117.116211 -8.968192 10.844887 -47.004617 3.203730 29.342933 104.037455 25.113036 18.287499 -61.114948 3.780221 31.407573 4.029434 -42.873613 60.876431 -7.370060 -78.728093 -43.449296 -144.375897 8.379196 45.906289 -62.195136 -33.803644 -42.590532 -75.468468 9.273192 23.654258 6.445290 77.982517 -44.397541 78.984430 20.161469 40.399674 115.317594 11.380244 1.559418 -1.245634 56.726712 -32.407284 61.804456 13.115275 41.402121 128.934000 -61.692174 14.201965 -3.063525 -58.040523 35.185351 -53.175236 19.942377 -41.008487 78.597063 15.908025 35.794149 171.418979 -7.652060 3.310026 -32.705869 -34.316288 -8.541431 -72.189055
46.862211 66.582335 -118.300150 -0.103125 8.561206 -43.566495 -9.523111 33.849513 109.421065 21.175861 15.176441 -64.284415 3.602594 24.820919 3.955171 -43.210382 54.666546 -9.761279 -76.845762 -41.925508 -141.613140 7.172028 50.085128 -63.651339 -35.895865 -38.218487 -78.583990 14.403336 19.157024 4.664805 73.926662 -41.081699 77.561026 18.032082 39.715907 119.615122 9.111775 3.334982 0.370642 53.057821 -42.005831 64.746498 17.347243 45.499247 118.366058 -60.202025 11.324816 -0.834745 -64.365223 33.405663 -55.018109 27.357711 -45.362794 72.746439 -24.907226 55.153579 204.835215 -4.097723 3.014891 -29.874021 -36.789929 -7.312715 -66.319463
47.324809 62.427706 -119.613732 -5.942465 7.594079 -35.091343 -17.242717 43.550621 115.841484 18.524103 12.740434 -67.991173 5.181324 20.853541 2.773878 -41.861055 47.820104 -12.132515 -74.467715 -39.730797 -139.814860 6.494204 54.584150 -64.317719 -32.060573 -39.603459 -80.485187 16.639869 14.221752 2.704194 68.913754 -41.251873 74.890948 17.990045 44.316627 120.446534 3.701701 6.110584 1.101433 54.334712 -47.739324 63.270406 28.726208 45.586564 100.485053 -60.494623 10.200999 0.219169 -70.926597 29.003773 -54.554586 11.842799 -55.651968 98.578379 -118.817042 144.529289 249.135057 -2.047373 -1.768777 -22.077366 -42.804512 -7.644447 -59.459631
47.822694 58.536471 -121.074598 -8.560014 7.379788 -28.782400 -26.794183 54.060377 126.187048 15.134159 8.899251 -70.694391 7.631738 18.355969 0.959746 -40.432179 41.241024 -15.186101 -73.197812 -36.680991 -137.608928 5.571766 58.096073 -64.904228 -32.434591 -38.537833 -80.294666 19.336395 7.049802 5.176585 64.570088 -43.677841 72.421049 17.333121 44.410269 118.067347 -2.853332 8.746147 4.042852 53.546894 -55.469677 62.515205 42.394226 43.993245 77.353081 -63.593754 13.433574 0.727332 -76.464733 25.943838 -52.337680 4.734533 -55.659300 121.457839 -127.636660 189.150696 274.715836 -1.176450 -14.212996 -12.495173 -51.837721 -8.642333 -48.055852
48.206572 54.558772 -122.263010 -4.830561 2.760998 -26.052718 -41.204342 59.384697 137.112373 14.005026 8.658917 -75.022887 12.585558 17.375660 -1.663119 -38.591102 36.053819 -17.408875 -73.548351 -35.481433 -134.761572 3.162108 60.413426 -66.534532 -29.270168 -40.129834 -81.987036 20.898477 0.675379 8.383130 59.083554 -44.240686 72.581838 17.061934 46.343660 118.627340 4.373511 -2.209691 14.897770 55.242150 -61.197518 61.008786 63.682771 61.980074 49.973909 -66.120090 20.048108 -3.629817 -79.198687 23.720952 -51.290315 -1.985562 -57.764774 137.691942 -120.920767 209.596786 278.863127 1.553060 -20.352977 -11.204198 -58.686099 -4.455905 -36.842068
48.578171 50.420837 -123.118809 4.976586 1.166493 -21.777252 -55.812102 58.268597 148.194997 15.870867 9.497737 -81.206325 17.164192 13.419696 -4.489347 -44.990278 26.568439 -15.053093 -65.636014 -27.369837 -128.206817 4.526332 60.048093 -62.409125 -29.167510 -40.340149 -81.658880 18.326301 -2.470057 16.735481 62.693651 -50.954338 70.173295 14.594690 41.347196 112.460670 -11.445176 6.786680 0.834200 75.071326 -61.750941 60.219763 125.856371 116.702074 25.041179 -67.197997 23.187804 -10.949074 -80.406674 22.140164 -52.219190 -14.567767 -62.154885 151.684349 -115.446589 221.373657 272.760627 5.513817 -21.501217 -12.138898 -93.021555 2.947950 -54.397648
48.961586 46.633844 -123.738392 9.837123 9.721269 -13.661150 -58.685108 51.810820 152.712962 18.572642 6.406866 -90.436199 22.461883 7.324755 -7.556307 -42.408593 16.005759 -18.321387 -67.043675 -22.085809 -130.804884 2.811916 60.418856 -61.770564 -29.565362 -38.585958 -82.055584 26.002076 -4.127511 16.646407 59.720872 -46.148709 72.074116 15.425110 40.231272 117.072898 -11.101710 0.851713 0.301077 85.339901 -62.484005 96.552729 166.131046 130.781867 12.541528 -68.536905 17.685303 -13.770402 -83.569994 18.491953 -53.981683 -25.838655 -70.358912 161.362126 -120.676793 233.282242 269.824929 8.044611 -23.588895 -12.068641 -80.512098 2.914230 -35.566479
49.246048 43.537077 -123.870867 16.276660 9.702888 -8.312397 -64.086804 52.514978 157.855603 20.615901 4.439392 -96.302245 24.699144 0.153035 -10.185635 -38.404924 10.324339 -20.510404 -69.742488 -19.823784 -130.792180 0.879321 62.181168 -61.324314 -31.752180 -36.291585 -80.203688 30.992403 -5.671105 17.030407 59.040217 -42.981356 73.572353 15.209861 39.709753 119.891636 -19.550672 6.146534 -9.820055 78.093364 -67.171147 115.705276 194.098854 135.243155 2.634795 -69.283274 13.652186 -14.343556 -85.943779 13.956322 -54.860114 -40.175863 -67.008643 166.046584 -120.078564 240.906127 266.888494 8.942289 -23.272244 -12.109148 -87.958657 2.401772 -39.578808
49.709172 41.242575 -123.441589 21.160389 5.266769 -0.921073 -72.901082 55.247071 162.787040 21.394217 3.007392 -99.873703 22.234409 -9.445044 -12.138583 -30.249593 7.256508 -22.534276 -76.179251 -19.544747 -135.816003 -3.985661 68.243179 -56.939124 -32.968282 -35.524029 -77.724165 25.735028 -10.544463 23.333391 65.390448 -44.970577 70.908183 14.291918 45.228898 125.052526 -12.418732 0.624056 -4.131847 56.437013 -69.111699 123.502688 218.656403 144.476710 -9.942624 -69.458386 10.874804 -12.598242 -88.471290 7.451071 -54.818303 -54.240882 -55.769499 163.723241 -119.480185 245.667370 264.845639 9.480140 -23.232458 -11.540614 -83.905356 -3.110255 -36.829678
50.226812 39.501414 -122.686060 26.654945 0.389499 9.205218 -76.952859 55.909056 166.818464 19.194911 -1.372222 -103.035903 17.921790 -20.376783 -13.833507 -22.317889 7.205348 -23.683831 -81.974086 -19.874385 -135.975283 1.171450 68.649432 -58.138249 -25.336221 -28.529502 -81.338271 28.564225 -9.419148 21.682909 66.842164 -44.914918 74.467449 16.064839 47.047200 121.021485 -26.316184 3.859003 -23.236418 31.269788 -68.615343 124.602062 232.971250 155.901964 -21.155408 -71.536109 11.251056 -9.926755 -89.731419 1.967728 -51.918566 -67.092006 -37.911634 158.654434 -121.772260 246.718399 262.918597 10.597619 -21.186699 -10.440434 -83.728441 -12.397909 -44.432467
